<mxfile host="app.diagrams.net" modified="2024-05-13T13:56:11.980Z" agent="Mozilla/5.0 (Macintosh; Intel Mac OS X 10_15_7) AppleWebKit/605.1.15 (KHTML, like Gecko) Version/17.5 Safari/605.1.15" etag="5b-DhBq9iZrCQl2a_cOt" version="24.4.0" type="device">
  <diagram name="Page-1" id="k99TSKJfoNGT4C4ARBOw">
    <mxGraphModel dx="665" dy="696" grid="1" gridSize="10" guides="1" tooltips="1" connect="1" arrows="1" fold="1" page="1" pageScale="1" pageWidth="827" pageHeight="1169" math="0" shadow="0">
      <root>
        <mxCell id="0" />
        <mxCell id="1" parent="0" />
        <mxCell id="CbytgTAqb2JmNf-wiuoh-12" style="edgeStyle=orthogonalEdgeStyle;rounded=0;orthogonalLoop=1;jettySize=auto;html=1;exitX=1;exitY=0.5;exitDx=0;exitDy=0;entryX=0;entryY=0.5;entryDx=0;entryDy=0;" edge="1" parent="1" source="CbytgTAqb2JmNf-wiuoh-1" target="CbytgTAqb2JmNf-wiuoh-3">
          <mxGeometry relative="1" as="geometry" />
        </mxCell>
        <mxCell id="CbytgTAqb2JmNf-wiuoh-1" value="Processor Load" style="rounded=0;whiteSpace=wrap;html=1;" vertex="1" parent="1">
          <mxGeometry x="240" y="270" width="120" height="30" as="geometry" />
        </mxCell>
        <mxCell id="CbytgTAqb2JmNf-wiuoh-13" style="edgeStyle=orthogonalEdgeStyle;rounded=0;orthogonalLoop=1;jettySize=auto;html=1;exitX=1;exitY=0.5;exitDx=0;exitDy=0;" edge="1" parent="1" source="CbytgTAqb2JmNf-wiuoh-2" target="CbytgTAqb2JmNf-wiuoh-3">
          <mxGeometry relative="1" as="geometry" />
        </mxCell>
        <mxCell id="CbytgTAqb2JmNf-wiuoh-2" value="Memory Usage" style="rounded=0;whiteSpace=wrap;html=1;" vertex="1" parent="1">
          <mxGeometry x="240" y="310" width="120" height="30" as="geometry" />
        </mxCell>
        <mxCell id="CbytgTAqb2JmNf-wiuoh-19" style="edgeStyle=orthogonalEdgeStyle;rounded=0;orthogonalLoop=1;jettySize=auto;html=1;exitX=1;exitY=0.5;exitDx=0;exitDy=0;entryX=0;entryY=0.5;entryDx=0;entryDy=0;" edge="1" parent="1" source="CbytgTAqb2JmNf-wiuoh-3" target="CbytgTAqb2JmNf-wiuoh-18">
          <mxGeometry relative="1" as="geometry" />
        </mxCell>
        <mxCell id="CbytgTAqb2JmNf-wiuoh-3" value="Hardware Resources" style="rounded=0;whiteSpace=wrap;html=1;" vertex="1" parent="1">
          <mxGeometry x="400" y="290" width="120" height="30" as="geometry" />
        </mxCell>
        <mxCell id="CbytgTAqb2JmNf-wiuoh-16" style="edgeStyle=orthogonalEdgeStyle;rounded=0;orthogonalLoop=1;jettySize=auto;html=1;exitX=1;exitY=0.5;exitDx=0;exitDy=0;" edge="1" parent="1" source="CbytgTAqb2JmNf-wiuoh-4" target="CbytgTAqb2JmNf-wiuoh-6">
          <mxGeometry relative="1" as="geometry" />
        </mxCell>
        <mxCell id="CbytgTAqb2JmNf-wiuoh-4" value="Output Throughput" style="rounded=0;whiteSpace=wrap;html=1;" vertex="1" parent="1">
          <mxGeometry x="80" y="350" width="120" height="30" as="geometry" />
        </mxCell>
        <mxCell id="CbytgTAqb2JmNf-wiuoh-17" style="edgeStyle=orthogonalEdgeStyle;rounded=0;orthogonalLoop=1;jettySize=auto;html=1;exitX=1;exitY=0.5;exitDx=0;exitDy=0;" edge="1" parent="1" source="CbytgTAqb2JmNf-wiuoh-5" target="CbytgTAqb2JmNf-wiuoh-6">
          <mxGeometry relative="1" as="geometry" />
        </mxCell>
        <mxCell id="CbytgTAqb2JmNf-wiuoh-5" value="Available Output Bandwidth" style="rounded=0;whiteSpace=wrap;html=1;" vertex="1" parent="1">
          <mxGeometry x="80" y="390" width="120" height="30" as="geometry" />
        </mxCell>
        <mxCell id="CbytgTAqb2JmNf-wiuoh-14" style="edgeStyle=orthogonalEdgeStyle;rounded=0;orthogonalLoop=1;jettySize=auto;html=1;exitX=1;exitY=0.5;exitDx=0;exitDy=0;" edge="1" parent="1" source="CbytgTAqb2JmNf-wiuoh-6" target="CbytgTAqb2JmNf-wiuoh-8">
          <mxGeometry relative="1" as="geometry" />
        </mxCell>
        <mxCell id="CbytgTAqb2JmNf-wiuoh-6" value="Output Congestion" style="rounded=0;whiteSpace=wrap;html=1;" vertex="1" parent="1">
          <mxGeometry x="240" y="370" width="120" height="30" as="geometry" />
        </mxCell>
        <mxCell id="CbytgTAqb2JmNf-wiuoh-15" style="edgeStyle=orthogonalEdgeStyle;rounded=0;orthogonalLoop=1;jettySize=auto;html=1;exitX=1;exitY=0.5;exitDx=0;exitDy=0;" edge="1" parent="1" source="CbytgTAqb2JmNf-wiuoh-7" target="CbytgTAqb2JmNf-wiuoh-8">
          <mxGeometry relative="1" as="geometry" />
        </mxCell>
        <mxCell id="CbytgTAqb2JmNf-wiuoh-7" value="Input Throughput" style="rounded=0;whiteSpace=wrap;html=1;" vertex="1" parent="1">
          <mxGeometry x="240" y="410" width="120" height="30" as="geometry" />
        </mxCell>
        <mxCell id="CbytgTAqb2JmNf-wiuoh-20" style="edgeStyle=orthogonalEdgeStyle;rounded=0;orthogonalLoop=1;jettySize=auto;html=1;exitX=1;exitY=0.5;exitDx=0;exitDy=0;entryX=0;entryY=0.5;entryDx=0;entryDy=0;" edge="1" parent="1" source="CbytgTAqb2JmNf-wiuoh-8" target="CbytgTAqb2JmNf-wiuoh-18">
          <mxGeometry relative="1" as="geometry" />
        </mxCell>
        <mxCell id="CbytgTAqb2JmNf-wiuoh-8" value="Network Usage" style="rounded=0;whiteSpace=wrap;html=1;" vertex="1" parent="1">
          <mxGeometry x="400" y="390" width="120" height="30" as="geometry" />
        </mxCell>
        <mxCell id="CbytgTAqb2JmNf-wiuoh-21" style="edgeStyle=orthogonalEdgeStyle;rounded=0;orthogonalLoop=1;jettySize=auto;html=1;exitX=1;exitY=0.5;exitDx=0;exitDy=0;entryX=0;entryY=0.5;entryDx=0;entryDy=0;" edge="1" parent="1" source="CbytgTAqb2JmNf-wiuoh-9" target="CbytgTAqb2JmNf-wiuoh-18">
          <mxGeometry relative="1" as="geometry" />
        </mxCell>
        <mxCell id="CbytgTAqb2JmNf-wiuoh-9" value="Latency" style="rounded=0;whiteSpace=wrap;html=1;" vertex="1" parent="1">
          <mxGeometry x="400" y="490" width="120" height="30" as="geometry" />
        </mxCell>
        <mxCell id="CbytgTAqb2JmNf-wiuoh-18" value="Computing Load Percentage" style="rounded=0;whiteSpace=wrap;html=1;" vertex="1" parent="1">
          <mxGeometry x="560" y="390" width="120" height="30" as="geometry" />
        </mxCell>
      </root>
    </mxGraphModel>
  </diagram>
</mxfile>
